<?xml version="1.0" encoding="utf-8"?>
<!-- Generator: Adobe Illustrator 25.0.0, SVG Export Plug-In . SVG Version: 6.00 Build 0)  -->
<svg version="1.1" id="Camada_1" xmlns="http://www.w3.org/2000/svg" xmlns:xlink="http://www.w3.org/1999/xlink" x="0px" y="0px"
	 viewBox="0 0 100 100" style="enable-background:new 0 0 100 100;" xml:space="preserve">
<style type="text/css">
	.st0{fill:#AEB8C2;}
	.st1{fill:#F5F5F7;}
	.st2{fill:#DCE0E6;}
</style>
<g>
	<polygon class="st0" points="14.9,52.47 31.88,34.73 67.12,34.73 85.1,52.47 74.96,67.02 21.91,67.02 	"/>
	<path class="st1" d="M73.57,65.99H27.51c-1.1,0-2-0.9-2-2V9.97c0-1.1,0.9-2,2-2h46.06c1.1,0,2,0.9,2,2v54.02
		C75.57,65.09,74.68,65.99,73.57,65.99z"/>
	<path class="st2" d="M67.01,33.74H32.99c-0.55,0-1-0.45-1-1v-17.3c0-0.55,0.45-1,1-1h34.03c0.55,0,1,0.45,1,1v17.3
		C68.01,33.29,67.57,33.74,67.01,33.74z"/>
	<path class="st2" d="M67.01,43.32H32.99c-0.55,0-1-0.45-1-1v-0.83c0-0.55,0.45-1,1-1h34.03c0.55,0,1,0.45,1,1v0.83
		C68.01,42.87,67.57,43.32,67.01,43.32z"/>
	<path class="st2" d="M67.01,50.61H32.99c-0.55,0-1-0.45-1-1v-0.83c0-0.55,0.45-1,1-1h34.03c0.55,0,1,0.45,1,1v0.83
		C68.01,50.16,67.57,50.61,67.01,50.61z"/>
	<ellipse class="st0" cx="50" cy="82.39" rx="47.09" ry="9.65"/>
	<path class="st2" d="M45.36,86.52h35.16c2.53,0,4.58-2.05,4.58-4.58V52.47H67.35c0,0-3.75-0.44-3.75,2.32c0,2.76,0,4.46,0,4.46
		s0.41,2.34-2.43,2.34c-2.84,0-15.82,0-15.82,0"/>
	<path class="st2" d="M50,86.52H19.48c-2.53,0-4.58-2.05-4.58-4.58V52.47h17.75c0,0,3.75-0.44,3.75,2.32c0,2.76,0,4.46,0,4.46
		s-0.41,2.34,2.43,2.34s11.17,0,11.17,0"/>
</g>
</svg>
