<?xml version="1.0" encoding="iso-8859-1"?>
<svg version="1.1" id="Layer_1" xmlns="http://www.w3.org/2000/svg" xmlns:xlink="http://www.w3.org/1999/xlink" x="0px" y="0px"
	 viewBox="0 0 512 512" style="enable-background:new 0 0 512 512;" xml:space="preserve">
<g transform="translate(0 1)">
	<path style="fill:#EAEFD3;" d="M477.867,471.747c0,17.067-12.8,30.72-27.307,30.72H61.44c-14.507,0-27.307-13.653-27.307-30.72
		V38.253c0-17.067,12.8-30.72,27.307-30.72h388.267c15.36,0,28.16,13.653,28.16,30.72V471.747z"/>
	<path style="fill:#FFFFFF;" d="M34.133,471.747V38.253c0-17.067,12.8-30.72,27.307-30.72H39.253
		c-17.067,0-30.72,13.653-30.72,30.72v433.493c0,17.067,13.653,30.72,30.72,30.72H61.44
		C46.933,502.467,34.133,488.813,34.133,471.747"/>
	<g>
		<path style="fill:#5C9974;" d="M472.747,7.533H450.56c14.507,0,27.307,13.653,27.307,30.72v433.493
			c0,17.067-12.8,30.72-27.307,30.72h22.187c17.067,0,30.72-13.653,30.72-30.72V38.253C503.467,21.187,489.813,7.533,472.747,7.533"
			/>
		<path style="fill:#EAEFD3;" d="M349.867,220.867V178.2c0-46.08-47.787-76.8-78.507-76.8h-25.6c30.72,0,78.507,30.72,78.507,76.8
			v42.667c46.08,0,59.733,18.773,59.733,64.853v30.72c0,52.907-37.547,92.16-92.16,92.16h25.6c54.613,0,92.16-39.253,92.16-92.16
			v-30.72C409.6,239.64,395.947,220.867,349.867,220.867"/>
	</g>
	<path style="fill:#5C9974;" d="M311.467,331.8H200.533c-11.947,0-21.333-9.387-21.333-21.333s9.387-21.333,21.333-21.333h110.933
		c11.947,0,21.333,9.387,21.333,21.333S323.413,331.8,311.467,331.8 M200.533,178.2H268.8c11.947,0,21.333,9.387,21.333,21.333
		c0,11.947-9.387,21.333-21.333,21.333h-68.267c-11.947,0-21.333-9.387-21.333-21.333C179.2,187.587,188.587,178.2,200.533,178.2
		 M324.267,220.867V178.2c0-46.08-47.787-76.8-78.507-76.8h-52.053c-53.76,0-91.307,38.4-91.307,92.16v122.88
		c0,52.907,37.547,92.16,92.16,92.16h98.133c53.76,0,91.307-39.253,91.307-92.16v-30.72C384,239.64,370.347,220.867,324.267,220.867
		"/>
	<g>
		<path style="fill:#383F51;" d="M472.747,511H39.253C17.92,511,0,493.08,0,471.747v-327.68c0-5.12,3.413-8.533,8.533-8.533
			s8.533,3.413,8.533,8.533v327.68c0,11.947,10.24,22.187,22.187,22.187h433.493c11.947,0,22.187-10.24,22.187-22.187V38.253
			c0-11.947-10.24-22.187-22.187-22.187H39.253c-11.947,0-22.187,10.24-22.187,22.187V75.8c0,5.12-3.413,8.533-8.533,8.533
			S0,80.92,0,75.8V38.253C0,16.92,17.92-1,39.253-1h433.493C494.08-1,512,16.92,512,38.253v433.493
			C512,493.08,494.08,511,472.747,511z"/>
		<path style="fill:#383F51;" d="M17.067,109.933c0-5.12-3.413-8.533-8.533-8.533S0,104.813,0,109.933s3.413,8.533,8.533,8.533
			S17.067,115.053,17.067,109.933"/>
		<path style="fill:#383F51;" d="M317.44,417.133H194.56c-58.88,0-100.693-42.667-100.693-100.693V193.56
			c0-58.027,41.813-100.693,100.693-100.693h77.653c34.133,0,86.187,34.133,86.187,85.333v34.133
			c49.493,2.56,59.733,31.573,59.733,73.387v30.72C418.133,374.467,375.467,417.133,317.44,417.133z M194.56,109.933
			c-49.493,0-83.627,34.133-83.627,83.627v122.88c0,49.493,34.133,83.627,83.627,83.627h123.733
			c48.64,0,82.773-34.133,83.627-83.627v-30.72c0-43.52-11.093-56.32-51.2-56.32h-8.533v-51.2c0-39.253-41.813-68.267-69.973-68.267
			L194.56,109.933L194.56,109.933z"/>
	</g>
	<path id="SVGCleanerId_0" style="fill:#383F51;" d="M268.8,229.4h-68.267c-16.213,0-29.867-13.653-29.867-29.867
		s13.653-29.867,29.867-29.867H268.8c16.213,0,29.867,13.653,29.867,29.867S285.013,229.4,268.8,229.4z M200.533,186.733
		c-6.827,0-12.8,5.973-12.8,12.8s5.973,12.8,12.8,12.8H268.8c6.827,0,12.8-5.973,12.8-12.8s-5.973-12.8-12.8-12.8H200.533z"/>
	<path id="SVGCleanerId_1" style="fill:#383F51;" d="M311.467,340.333H200.533c-16.213,0-29.867-13.653-29.867-29.867
		S184.32,280.6,200.533,280.6h110.933c16.213,0,29.867,13.653,29.867,29.867S327.68,340.333,311.467,340.333z M200.533,297.667
		c-6.827,0-12.8,5.973-12.8,12.8s5.973,12.8,12.8,12.8h110.933c6.827,0,12.8-5.973,12.8-12.8s-5.973-12.8-12.8-12.8H200.533z"/>
	<g>
		<path id="SVGCleanerId_0_1_" style="fill:#383F51;" d="M268.8,229.4h-68.267c-16.213,0-29.867-13.653-29.867-29.867
			s13.653-29.867,29.867-29.867H268.8c16.213,0,29.867,13.653,29.867,29.867S285.013,229.4,268.8,229.4z M200.533,186.733
			c-6.827,0-12.8,5.973-12.8,12.8s5.973,12.8,12.8,12.8H268.8c6.827,0,12.8-5.973,12.8-12.8s-5.973-12.8-12.8-12.8H200.533z"/>
	</g>
	<g>
		<path id="SVGCleanerId_1_1_" style="fill:#383F51;" d="M311.467,340.333H200.533c-16.213,0-29.867-13.653-29.867-29.867
			S184.32,280.6,200.533,280.6h110.933c16.213,0,29.867,13.653,29.867,29.867S327.68,340.333,311.467,340.333z M200.533,297.667
			c-6.827,0-12.8,5.973-12.8,12.8s5.973,12.8,12.8,12.8h110.933c6.827,0,12.8-5.973,12.8-12.8s-5.973-12.8-12.8-12.8H200.533z"/>
	</g>
</g>
<g>
</g>
<g>
</g>
<g>
</g>
<g>
</g>
<g>
</g>
<g>
</g>
<g>
</g>
<g>
</g>
<g>
</g>
<g>
</g>
<g>
</g>
<g>
</g>
<g>
</g>
<g>
</g>
<g>
</g>
</svg>
