<svg width="843.57946" height="640.51678" xmlns="http://www.w3.org/2000/svg">

 <g>
  <title>Layer 1</title>
  <path id="svg_12" fill="#e6e6e6" d="m765.95495,417.91039l2.98548,-26.10867l14.969,-130.90768l2.98548,-26.10867a48.17929,48.17929 0 0 0 -42.34617,-53.28082l-339.66233,-38.83974a48.17924,48.17924 0 0 0 -53.28086,42.346l-0.00771,0.06744l-20.92459,182.99019l-0.00771,0.06744a48.17923,48.17923 0 0 0 42.34611,53.2808l339.66238,38.83977a48.17929,48.17929 0 0 0 53.28092,-42.34606z"/>
  <path id="svg_13" fill="#fff" d="m752.1904,416.33696l3.5361,-30.924l13.86792,-121.278l3.536,-30.92349a34.30948,34.30948 0 0 0 -30.1556,-37.94256l-339.66233,-38.83979a34.30948,34.30948 0 0 0 -37.94245,30.15568l-0.00771,0.06743l-20.9246,182.99016l-0.00776,0.06792a34.30934,34.30934 0 0 0 30.1556,37.94208l339.66238,38.83977a34.30936,34.30936 0 0 0 37.94245,-30.1552z"/>
  <path id="svg_14" fill="#e6e6e6" d="m696.59326,250.41633l-189.0696,-21.61976a8.01412,8.01412 0 1 1 1.82093,-15.92446l189.0696,21.61976a8.01412,8.01412 0 0 1 -1.82093,15.92446z"/>
  <path id="svg_15" fill="#e6e6e6" d="m726.36463,281.04452l-221.9138,-25.37543a8.01412,8.01412 0 1 1 1.82094,-15.92446l221.91379,25.37544a8.01411,8.01411 0 0 1 -1.82093,15.92445z"/>
  <path id="svg_16" fill="#e6e6e6" d="m720.17737,334.64097l-327.16964,-37.41125a8.01412,8.01412 0 0 1 1.82093,-15.92446l327.16968,37.41125a8.01412,8.01412 0 1 1 -1.82094,15.92446l-0.00003,0z"/>
  <path id="svg_17" fill="#e6e6e6" d="m718.15592,361.63371l-328.221,-37.53147a8.01412,8.01412 0 0 1 1.82093,-15.92446l328.221,37.53147a8.01412,8.01412 0 0 1 -1.82093,15.92446z"/>
  <path id="svg_18" fill="#e6e6e6" d="m714.15616,387.29783l-327.16967,-37.41125a8.01412,8.01412 0 1 1 1.82093,-15.92446l327.16967,37.41127a8.01412,8.01412 0 0 1 -1.82093,15.92446l0,-0.00002z"/>
  <path id="svg_19" fill="#e6e6e6" d="m712.13473,414.29057l-328.221,-37.53147a8.01412,8.01412 0 0 1 1.82093,-15.92446l328.221,37.53147a8.01412,8.01412 0 1 1 -1.82093,15.92446z"/>
  <path id="svg_20" fill="#6c63ff" d="m460.70318,263.02511l-66.90992,-7.651a3.847,3.847 0 0 1 -3.38133,-4.25447l6.81048,-59.55914a3.847,3.847 0 0 1 4.25446,-3.38133l66.90993,7.651a3.847,3.847 0 0 1 3.38132,4.25446l-6.81047,59.55915a3.847,3.847 0 0 1 -4.25447,3.38133z"/>
  <path id="svg_21" fill="#3f3d56" d="m852.57946,640.35827l-219,0a1,1 0 0 1 0,-2l219,0a1,1 0 0 1 0,2z"/>
  <path id="svg_22" fill="#ffb8b8" d="m770.34582,258.32046a9.37695,9.37695 0 0 0 8.41945,11.6556l6.77492,20.32879l13.35789,-1.10405l-9.9707,-28.5738a9.42779,9.42779 0 0 0 -18.58156,-2.30654z"/>
  <path id="svg_23" fill="#6c63ff" d="m780.57622,391.44539l0,0a12.08366,12.08366 0 0 0 19.9793,-6.32315l10.57975,-48.473a47.876,47.876 0 0 0 -1.23439,-24.98l-12.38205,-38.17547a4,4 0 0 0 -5.59557,-2.34269l-8.08121,4.04582a4,4 0 0 0 -2.05021,4.69365l0.81477,2.802a134.70325,134.70325 0 0 1 1.02888,71.4844l-6.58107,25.33a12.08364,12.08364 0 0 0 3.5218,11.93844z"/>
  <polygon id="svg_24" fill="#ffb8b8" points="738.2429809570312,629.9010009765625 726.8109741210938,629.9000244140625 721.3740234375,585.8040161132812 738.2470092773438,585.8049926757812 738.2429809570312,629.9010009765625 "/>
  <path id="svg_25" fill="#2f2e41" d="m718.64439,626.63322l22.04781,0a0,0 0 0 1 0,0l0,13.88195a0,0 0 0 1 0,0l-35.92974,0a0,0 0 0 1 0,0l0,0a13.88193,13.88193 0 0 1 13.88193,-13.88195z"/>
  <polygon id="svg_26" fill="#ffb8b8" points="799.864013671875,629.9010009765625 788.4320068359375,629.9000244140625 782.9949951171875,585.8040161132812 799.8679809570312,585.8049926757812 799.864013671875,629.9010009765625 "/>
  <path id="svg_27" fill="#2f2e41" d="m780.26564,626.63322l22.04781,0a0,0 0 0 1 0,0l0,13.88195a0,0 0 0 1 0,0l-35.92974,0a0,0 0 0 1 0,0l0,0a13.88193,13.88193 0 0 1 13.88193,-13.88195z"/>
  <circle id="svg_28" fill="#ffb8b8" r="24.56103" cy="291.8647" cx="766.38308"/>
  <path id="svg_29" fill="#ffb8b8" d="m682.40057,452.04275a9.377,9.377 0 0 1 12.09228,-7.77927l13.72625,-16.45445l12.03377,5.90259l-19.71048,22.96462a9.42779,9.42779 0 0 1 -18.14182,-4.63349z"/>
  <path id="svg_30" fill="#2f2e41" d="m772.36327,316.42473a26.205,26.205 0 1 0 -4.91018,-51.82531c-5.40118,-3.27952 -11.6809,-5.48627 -17.97478,-4.925s-12.51835,4.29788 -14.87192,10.16207s0.17487,13.59411 6.02708,15.97731c3.75184,1.52786 7.98866,0.78692 11.99255,0.1708s8.37171,-1.01817 11.85634,1.04774s5.05107,7.60548 1.93026,10.18835a10.73847,10.73847 0 0 0 -3.0842,11.82027c1.56846,4.0563 5.84936,7.31495 9.03485,7.38377z"/>
  <path id="svg_31" fill="#2f2e41" d="m802.83616,451.07166l4.35678,165.33964a4,4 0 0 1 -4.20243,4.10017l-14.35213,-0.73225a4,4 0 0 1 -3.74658,-3.36683l-17.07107,-107.38906a2,2 0 0 0 -3.92705,-0.12222l-23.10758,103.3966a4,4 0 0 1 -5.24374,2.89644l-14.24374,-0.87a4,4 0 0 1 -2.64986,-4.05306l12.434,-160.76415l71.7534,1.56472z"/>
  <path id="svg_32" fill="#6c63ff" d="m809.82808,372.54094c2.403,-25.05537 -16.01923,-47.71792 -41.12634,-49.5007c-10.81772,-0.76813 -27.61219,-1.04273 -33.14841,13.13648c-16.6774,42.71375 12.51774,41.67582 2.45884,78.68292s-18.94294,39.128 -5.14121,41.80029s75.86671,18.447 73.31817,-7.60005c-1.56653,-16.01054 1.24199,-51.52613 3.63895,-76.51894z"/>
  <path id="svg_33" fill="#6c63ff" d="m740.50659,331.83211l0,0a12.08366,12.08366 0 0 1 16.29393,13.1781l-7.8391,48.991a47.876,47.876 0 0 1 -10.26518,22.80677l-25.45946,31.02411a4,4 0 0 1 -6.06458,0.13914l-6.04747,-6.71584a4,4 0 0 1 -0.196,-5.11813l1.78109,-2.31142a134.7031,134.7031 0 0 0 27.04467,-66.179l3.11643,-25.98473a12.08366,12.08366 0 0 1 7.63567,-9.83z"/>
 </g>
</svg>